<?xml version="1.0" standalone="no"?>
<!DOCTYPE svg PUBLIC "-//W3C//DTD SVG 20010904//EN"
 "http://www.w3.org/TR/2001/REC-SVG-20010904/DTD/svg10.dtd">
<svg version="1.0" xmlns="http://www.w3.org/2000/svg"
 width="500.000000pt" height="500.000000pt" viewBox="0 0 500.000000 500.000000"
 preserveAspectRatio="xMidYMid meet">
<metadata>
Created by potrace 1.14, written by Peter Selinger 2001-2017
</metadata>
<g transform="translate(0.000000,500.000000) scale(0.100000,-0.100000)"
fill="#000000" stroke="none">
<path d="M1575 3921 c-3 -2 -24 -5 -48 -6 -50 -3 -121 -12 -157 -21 -14 -3
-32 -7 -40 -8 -44 -7 -82 -19 -145 -46 -16 -8 -36 -15 -44 -16 -8 -1 -17 -8
-21 -14 -4 -7 -10 -11 -14 -11 -7 2 -69 -29 -76 -38 -3 -3 -17 -13 -31 -21
-60 -34 -211 -174 -254 -236 -11 -15 -27 -35 -35 -44 -8 -8 -24 -32 -35 -53
-11 -20 -23 -37 -27 -37 -5 0 -8 -6 -8 -14 0 -8 -8 -22 -17 -32 -10 -10 -17
-20 -17 -23 2 -10 -10 -36 -23 -49 -7 -8 -11 -17 -8 -22 3 -5 1 -11 -5 -15 -6
-4 -8 -11 -5 -16 4 -5 1 -9 -4 -9 -6 0 -10 -3 -10 -7 1 -5 1 -10 -1 -13 -1 -3
-4 -16 -6 -30 -2 -13 -10 -28 -17 -32 -6 -4 -9 -8 -5 -8 3 0 0 -20 -7 -44 -8
-24 -11 -47 -8 -49 3 -3 1 -12 -3 -19 -5 -7 -10 -24 -10 -38 -1 -14 -3 -25 -4
-25 -1 0 -3 -19 -4 -42 -1 -23 -5 -45 -9 -49 -3 -4 -2 -14 3 -24 5 -10 6 -20
3 -24 -10 -10 -15 -100 -15 -306 -1 -188 1 -222 26 -465 9 -88 30 -214 36
-222 2 -2 3 -11 4 -20 1 -10 4 -22 7 -28 3 -5 12 -32 19 -60 7 -27 17 -54 21
-59 5 -6 9 -20 9 -33 0 -13 5 -23 10 -23 6 0 10 -7 10 -15 0 -18 51 -119 62
-123 5 -2 6 -8 2 -13 -3 -5 0 -9 5 -9 6 0 11 -7 11 -15 0 -8 5 -15 10 -15 6 0
10 -6 10 -12 0 -18 90 -135 154 -201 29 -31 51 -59 47 -63 -3 -4 -1 -4 5 -1 6
4 19 -2 29 -13 10 -11 24 -20 30 -20 7 0 15 -6 18 -14 3 -8 28 -26 56 -42 28
-15 51 -30 51 -35 0 -4 11 -10 25 -13 14 -4 25 -11 25 -17 0 -6 4 -8 9 -5 5 3
21 -4 37 -16 15 -13 25 -17 21 -11 -5 8 2 7 20 -2 15 -8 43 -18 61 -21 17 -3
32 -10 32 -15 0 -5 11 -9 25 -9 14 0 25 -5 25 -11 0 -5 4 -8 9 -5 4 3 30 -3
57 -13 27 -10 59 -17 72 -16 12 1 22 -2 22 -5 0 -7 58 -20 110 -25 14 -1 27
-4 30 -5 3 -1 10 -3 15 -4 13 -2 94 -17 120 -22 27 -6 105 -16 136 -19 14 -1
31 -5 37 -9 7 -4 12 -2 12 4 0 6 5 8 12 4 6 -4 50 -9 97 -10 47 -2 88 -4 91
-5 12 -3 342 1 444 6 130 7 231 13 231 16 0 0 16 3 35 4 74 7 136 14 165 20
17 4 44 8 60 10 37 4 111 15 145 21 14 2 36 6 50 8 81 13 107 18 125 23 11 3
31 7 45 8 14 2 37 8 53 14 15 6 27 8 27 5 0 -2 10 1 23 8 12 6 35 13 50 14 16
1 34 6 40 11 7 5 38 17 70 28 31 10 57 22 57 27 0 5 5 6 10 3 6 -3 10 -1 10 5
0 6 5 8 10 5 6 -3 10 -2 10 4 0 6 6 8 14 5 7 -3 16 2 19 10 4 9 13 16 22 16 8
0 15 4 15 10 0 5 3 9 8 8 31 -10 281 230 304 293 4 10 12 19 17 19 5 0 12 8
16 19 3 10 16 31 30 47 13 15 22 31 20 35 -3 4 2 12 10 19 8 7 15 18 15 25 0
7 10 25 22 41 13 15 16 24 8 19 -11 -6 -11 -3 2 11 9 10 17 22 18 26 0 4 6 22
13 40 6 18 10 36 9 41 -1 4 3 7 10 7 6 0 9 2 6 6 -3 3 1 26 9 52 8 26 16 56
18 67 2 11 8 40 15 65 6 25 13 59 14 75 2 17 7 48 11 70 4 22 8 66 9 98 2 31
6 60 9 63 4 4 3 14 -2 23 -7 15 -7 33 -1 46 6 12 6 32 -1 57 -4 15 -3 30 2 34
5 3 6 10 3 16 -4 6 -8 45 -10 87 -2 42 -6 87 -9 101 -3 14 -8 36 -10 50 -7 49
-15 86 -24 117 -5 17 -7 34 -3 37 3 3 1 6 -5 6 -6 0 -13 18 -17 40 -3 22 -10
40 -14 40 -4 0 -9 12 -10 26 -1 15 -7 33 -13 40 -6 8 -8 14 -3 14 5 0 3 4 -4
9 -7 4 -15 14 -16 22 -9 42 -92 180 -151 247 -51 60 -152 162 -159 162 -5 0
-17 11 -28 26 -11 14 -23 23 -26 20 -3 -3 -12 2 -21 12 -9 10 -32 27 -51 38
-19 10 -37 22 -40 25 -8 9 -169 84 -230 106 -86 32 -271 89 -400 123 -19 5
-46 12 -60 16 -14 4 -34 9 -45 10 -29 5 -60 12 -60 15 0 1 -9 3 -20 5 -11 1
-51 10 -90 19 -38 9 -81 18 -95 20 -14 3 -36 8 -50 11 -14 3 -43 8 -65 11 -21
2 -42 6 -46 9 -4 2 -27 7 -51 10 -24 4 -53 10 -66 15 -13 5 -36 9 -51 9 -15 0
-31 3 -35 7 -3 4 -14 8 -24 9 -9 1 -35 5 -57 8 -22 4 -56 9 -75 11 -19 3 -51
7 -70 10 -19 3 -53 8 -75 10 -22 2 -62 6 -90 10 -27 4 -75 8 -105 11 -30 2
-82 7 -115 10 -73 6 -355 11 -360 5z"/>
</g>
</svg>
